Christmas comes but once a year - and this time it's coming to Bikini Bottom! Living at the bottom of the ocean, naturally SpongeBob hasn't heard of Christmas. When sandy tells him about it in 'Christmas Who?' he is determined to spread the holiday joy and manages to get all the residents to write letters to Santa - except scroogy Squidward who is sceptical about the whole business... Just one of nine episodes in this hilarious collection brimming with Yuletide cheer.

Format : AVI
Format/Info : Audio Video Interleave
File size : 1 008 MiB
Duration : 2h 0mn
Overall bit rate : 1 174 Kbps

Video
ID : 0
Format : MPEG-4 Visual
Format profile : Simple@L3
Format settings, BVOP : No
Format settings, QPel : No
Format settings, GMC : No warppoints

Codec ID : XVID
Codec ID/Hint : XviD
Duration : 2h 0mn
Bit rate : 1 001 Kbps
Width : 698 pixels
Height : 570 pixels
Display aspect ratio : 4:3
Frame rate : 25.000 fps
Color space : YUV
Chroma subsampling : 4:2:0
Bit depth : 8 bits
Scan type : Progressive
Bits/(Pixel*Frame) : 0.101
Stream size : 859 MiB (85%)
Writing library : XviD 1.1.2 (UTC 2006-11-01)

Audio
ID : 1
Format : MPEG Audio
Format version : Version 1
Format profile : Layer 3
Mode : Joint stereo
Mode extension : MS Stereo
Codec ID : 55
Codec ID/Hint : MP3
Duration : 2h 0mn
Bit rate mode : Constant
Bit rate : 160 Kbps
Channel(s) : 2 channels
Sampling rate : 48.0 KHz
Stream size : 137 MiB (14%)
Alignment : Split accross interleaves
Interleave, duration : 24 ms (0.60 video frame)
Interleave, preload duration : 308 ms
Writing library : LAME3.98
